<?xml version="1.0" encoding="UTF-8"?>
<!DOCTYPE svg PUBLIC "-//W3C//DTD SVG 1.1//EN" "http://www.w3.org/Graphics/SVG/1.1/DTD/svg11.dtd">
<svg xmlns="http://www.w3.org/2000/svg" version="1.1" width="200px" height="200px" style="shape-rendering:geometricPrecision; text-rendering:geometricPrecision; image-rendering:optimizeQuality; fill-rule:evenodd; clip-rule:evenodd" xmlns:xlink="http://www.w3.org/1999/xlink">
<g><path style="opacity:1" fill="#00214a" d="M 88.5,21.5 C 100.906,21.1179 113.24,21.7846 125.5,23.5C 128.215,25.0719 131.215,26.0719 134.5,26.5C 135.492,26.3284 136.158,26.6618 136.5,27.5C 138.849,29.341 141.515,30.6743 144.5,31.5C 145.492,31.3284 146.158,31.6618 146.5,32.5C 146.973,33.9063 147.973,34.573 149.5,34.5C 149.973,35.9063 150.973,36.573 152.5,36.5C 153.262,38.2624 154.596,39.2624 156.5,39.5C 157.812,40.1451 158.812,41.1451 159.5,42.5C 156.812,45.8544 153.812,48.8544 150.5,51.5C 148.983,51.5106 147.816,52.1772 147,53.5C 146.329,52.7476 145.496,52.4142 144.5,52.5C 143.5,52.1667 142.833,51.5 142.5,50.5C 142.027,49.0937 141.027,48.427 139.5,48.5C 139.027,47.0937 138.027,46.427 136.5,46.5C 135.508,46.6716 134.842,46.3382 134.5,45.5C 133.713,43.8958 132.38,43.2291 130.5,43.5C 127.828,42.4986 125.162,41.4986 122.5,40.5C 120.562,38.8372 118.228,38.1706 115.5,38.5C 106.838,35.8839 98.1716,35.8839 89.5,38.5C 85.7144,38.32 82.381,39.32 79.5,41.5C 76.2459,41.7936 73.5792,43.127 71.5,45.5C 71.1583,46.3382 70.4916,46.6716 69.5,46.5C 67.9731,46.427 66.9731,47.0937 66.5,48.5C 66.5,49.1667 66.1667,49.5 65.5,49.5C 63.5956,49.7376 62.2623,50.7376 61.5,52.5C 60.8333,53.8333 59.8333,54.8333 58.5,55.5C 56.7376,56.2623 55.7376,57.5956 55.5,59.5C 55.5,60.1667 55.1667,60.5 54.5,60.5C 53.0937,60.9731 52.427,61.9731 52.5,63.5C 50.7497,64.6594 49.7497,66.326 49.5,68.5C 49.6716,69.4916 49.3382,70.1583 48.5,70.5C 46.4152,72.6845 45.4152,75.3511 45.5,78.5C 45.7373,79.791 45.404,80.791 44.5,81.5C 41.005,92.7486 40.6717,104.082 43.5,115.5C 43.4664,120.395 44.7997,124.728 47.5,128.5C 49.341,130.849 50.6743,133.515 51.5,136.5C 51.427,138.027 52.0937,139.027 53.5,139.5C 53.427,141.027 54.0937,142.027 55.5,142.5C 57.5,146.5 60.5,149.5 64.5,151.5C 65.1667,151.5 65.5,151.833 65.5,152.5C 65.9731,153.906 66.9731,154.573 68.5,154.5C 68.9731,155.906 69.9731,156.573 71.5,156.5C 73.8185,156.992 75.8185,157.992 77.5,159.5C 78.7804,160.931 80.4471,161.598 82.5,161.5C 92.0772,163.196 101.744,163.863 111.5,163.5C 114.553,163.889 117.22,163.223 119.5,161.5C 122.01,161.946 124.01,161.28 125.5,159.5C 127.181,157.992 129.181,156.992 131.5,156.5C 133.027,156.573 134.027,155.906 134.5,154.5C 136.027,154.573 137.027,153.906 137.5,152.5C 140.833,151.167 143.167,148.833 144.5,145.5C 146.587,144.415 147.92,142.749 148.5,140.5C 149.906,140.027 150.573,139.027 150.5,137.5C 150.66,135.847 151.326,134.514 152.5,133.5C 154.104,132.713 154.771,131.38 154.5,129.5C 154.328,128.508 154.662,127.842 155.5,127.5C 157.074,125.898 157.741,123.898 157.5,121.5C 157.5,121.167 157.5,120.833 157.5,120.5C 159.13,116.774 160.13,112.774 160.5,108.5C 141.5,108.5 122.5,108.5 103.5,108.5C 103.5,103.833 103.5,99.1667 103.5,94.5C 127.833,94.5 152.167,94.5 176.5,94.5C 176.457,102.848 176.124,111.181 175.5,119.5C 175.5,119.833 175.5,120.167 175.5,120.5C 174.076,122.515 173.41,124.848 173.5,127.5C 171.928,130.215 170.928,133.215 170.5,136.5C 169.341,140.151 167.674,143.485 165.5,146.5C 164.094,146.973 163.427,147.973 163.5,149.5C 162.974,151.23 161.974,152.564 160.5,153.5C 158.413,154.585 157.08,156.251 156.5,158.5C 155.5,160.167 154.167,161.5 152.5,162.5C 150.596,162.738 149.262,163.738 148.5,165.5C 146.704,167.9 144.37,169.567 141.5,170.5C 139.973,170.427 138.973,171.094 138.5,172.5C 134.213,173.648 130.213,175.315 126.5,177.5C 123.572,177.565 120.905,178.232 118.5,179.5C 116.735,180.461 114.735,180.795 112.5,180.5C 100.36,180.96 88.3604,179.96 76.5,177.5C 75.209,177.737 74.209,177.404 73.5,176.5C 72.3646,174.787 70.698,174.12 68.5,174.5C 66.1815,174.008 64.1815,173.008 62.5,171.5C 62.0269,170.094 61.0269,169.427 59.5,169.5C 58.5084,169.672 57.8417,169.338 57.5,168.5C 56.7377,166.738 55.4044,165.738 53.5,165.5C 52.4154,163.413 50.7488,162.08 48.5,161.5C 46.1667,159.833 44.1667,157.833 42.5,155.5C 41.9202,153.251 40.5869,151.585 38.5,150.5C 38.573,148.973 37.9063,147.973 36.5,147.5C 34.7497,146.341 33.7497,144.674 33.5,142.5C 32.6743,139.515 31.341,136.849 29.5,134.5C 27.7329,132.208 26.7329,129.542 26.5,126.5C 24.014,114.307 23.014,101.974 23.5,89.5C 23.4299,85.5752 24.0966,81.9085 25.5,78.5C 27.0739,76.8984 27.7406,74.8984 27.5,72.5C 29.2132,71.3646 29.8799,69.698 29.5,67.5C 29.3284,66.5084 29.6618,65.8417 30.5,65.5C 32.0075,63.8185 33.0075,61.8185 33.5,59.5C 33.3284,58.5084 33.6618,57.8417 34.5,57.5C 35.9063,57.0269 36.573,56.0269 36.5,54.5C 38.2624,53.7377 39.2624,52.4044 39.5,50.5C 41.5869,49.4154 42.9202,47.7488 43.5,45.5C 43.8333,44.5 44.5,43.8333 45.5,43.5C 48.7642,41.9059 51.4309,39.5725 53.5,36.5C 55.4044,36.2624 56.7377,35.2624 57.5,33.5C 59.0269,33.573 60.0269,32.9063 60.5,31.5C 60.8417,30.6618 61.5084,30.3284 62.5,30.5C 64.153,30.3404 65.4863,29.6737 66.5,28.5C 68.4261,26.7073 70.7594,25.7073 73.5,25.5C 75.5529,25.5979 77.2196,24.9313 78.5,23.5C 81.5885,22.2154 84.9219,21.5488 88.5,21.5 Z"/></g>
<g><path style="opacity:0.867" fill="#020917" d="M 125.5,23.5 C 113.24,21.7846 100.906,21.1179 88.5,21.5C 100.972,18.9122 113.305,19.5789 125.5,23.5 Z"/></g>
<g><path style="opacity:0.169" fill="#00040c" d="M 125.5,23.5 C 128.916,23.5275 131.916,24.5275 134.5,26.5C 131.215,26.0719 128.215,25.0719 125.5,23.5 Z"/></g>
<g><path style="opacity:0.71" fill="#00050e" d="M 78.5,23.5 C 77.2196,24.9313 75.5529,25.5979 73.5,25.5C 74.7804,24.0687 76.4471,23.4021 78.5,23.5 Z"/></g>
<g><path style="opacity:0.965" fill="#010815" d="M 66.5,28.5 C 65.4863,29.6737 64.153,30.3404 62.5,30.5C 63.287,28.8958 64.6203,28.2291 66.5,28.5 Z"/></g>
<g><path style="opacity:0.075" fill="#010611" d="M 136.5,27.5 C 139.754,27.7936 142.421,29.127 144.5,31.5C 141.515,30.6743 138.849,29.341 136.5,27.5 Z"/></g>
<g><path style="opacity:0.973" fill="#000815" d="M 60.5,31.5 C 60.0269,32.9063 59.0269,33.573 57.5,33.5C 57.9731,32.0937 58.9731,31.427 60.5,31.5 Z"/></g>
<g><path style="opacity:0.18" fill="#000611" d="M 146.5,32.5 C 148.027,32.427 149.027,33.0937 149.5,34.5C 147.973,34.573 146.973,33.9063 146.5,32.5 Z"/></g>
<g><path style="opacity:0.973" fill="#020b1a" d="M 57.5,33.5 C 56.7377,35.2624 55.4044,36.2624 53.5,36.5C 54.2623,34.7376 55.5956,33.7376 57.5,33.5 Z"/></g>
<g><path style="opacity:0.137" fill="#00050f" d="M 149.5,34.5 C 151.027,34.427 152.027,35.0937 152.5,36.5C 150.973,36.573 149.973,35.9063 149.5,34.5 Z"/></g>
<g><path style="opacity:0.031" fill="#00050e" d="M 152.5,36.5 C 154.404,36.7376 155.738,37.7376 156.5,39.5C 154.596,39.2624 153.262,38.2624 152.5,36.5 Z"/></g>
<g><path style="opacity:0.232" fill="#010713" d="M 115.5,38.5 C 106.833,37.1667 98.1667,37.1667 89.5,38.5C 98.1716,35.8839 106.838,35.8839 115.5,38.5 Z"/></g>
<g><path style="opacity:0.98" fill="#010815" d="M 115.5,38.5 C 118.228,38.1706 120.562,38.8372 122.5,40.5C 119.933,40.2785 117.599,39.6118 115.5,38.5 Z"/></g>
<g><path style="opacity:0.949" fill="#071124" d="M 53.5,36.5 C 51.4309,39.5725 48.7642,41.9059 45.5,43.5C 47.5691,40.4275 50.2358,38.0941 53.5,36.5 Z"/></g>
<g><path style="opacity:0.298" fill="#00050f" d="M 89.5,38.5 C 86.3811,39.8699 83.0477,40.8699 79.5,41.5C 82.381,39.32 85.7144,38.32 89.5,38.5 Z"/></g>
<g><path style="opacity:0.308" fill="#00040c" d="M 79.5,41.5 C 77.1515,43.341 74.4848,44.6743 71.5,45.5C 73.5792,43.127 76.2459,41.7936 79.5,41.5 Z"/></g>
<g><path style="opacity:0.655" fill="#00040a" d="M 130.5,43.5 C 132.38,43.2291 133.713,43.8958 134.5,45.5C 132.847,45.3404 131.514,44.6737 130.5,43.5 Z"/></g>
<g><path style="opacity:0.957" fill="#040c1d" d="M 43.5,45.5 C 42.9202,47.7488 41.5869,49.4154 39.5,50.5C 40.0798,48.2512 41.4131,46.5846 43.5,45.5 Z"/></g>
<g><path style="opacity:0.086" fill="#00040b" d="M 69.5,46.5 C 69.0269,47.9063 68.0269,48.573 66.5,48.5C 66.9731,47.0937 67.9731,46.427 69.5,46.5 Z"/></g>
<g><path style="opacity:0.71" fill="#000610" d="M 136.5,46.5 C 138.027,46.427 139.027,47.0937 139.5,48.5C 137.973,48.573 136.973,47.9063 136.5,46.5 Z"/></g>
<g><path style="opacity:0.827" fill="#000815" d="M 139.5,48.5 C 141.027,48.427 142.027,49.0937 142.5,50.5C 140.973,50.573 139.973,49.9063 139.5,48.5 Z"/></g>
<g><path style="opacity:0.133" fill="#00040b" d="M 65.5,49.5 C 64.7377,51.2624 63.4044,52.2624 61.5,52.5C 62.2623,50.7376 63.5956,49.7376 65.5,49.5 Z"/></g>
<g><path style="opacity:0.957" fill="#030c1c" d="M 39.5,50.5 C 39.2624,52.4044 38.2624,53.7377 36.5,54.5C 36.7376,52.5956 37.7376,51.2623 39.5,50.5 Z"/></g>
<g><path style="opacity:0.922" fill="#030916" d="M 150.5,51.5 C 148.666,55.8125 146.666,56.1459 144.5,52.5C 145.496,52.4142 146.329,52.7476 147,53.5C 147.816,52.1772 148.983,51.5106 150.5,51.5 Z"/></g>
<g><path style="opacity:0.706" fill="#010815" d="M 36.5,54.5 C 36.573,56.0269 35.9063,57.0269 34.5,57.5C 34.427,55.9731 35.0937,54.9731 36.5,54.5 Z"/></g>
<g><path style="opacity:0.176" fill="#00040c" d="M 58.5,55.5 C 58.2624,57.4044 57.2624,58.7377 55.5,59.5C 55.7376,57.5956 56.7376,56.2623 58.5,55.5 Z"/></g>
<g><path style="opacity:0.6" fill="#000712" d="M 33.5,59.5 C 33.0075,61.8185 32.0075,63.8185 30.5,65.5C 30.461,62.911 31.461,60.911 33.5,59.5 Z"/></g>
<g><path style="opacity:0.133" fill="#00040c" d="M 54.5,60.5 C 54.573,62.0269 53.9063,63.0269 52.5,63.5C 52.427,61.9731 53.0937,60.9731 54.5,60.5 Z"/></g>
<g><path style="opacity:0.261" fill="#00030a" d="M 52.5,63.5 C 52.2503,65.674 51.2503,67.3406 49.5,68.5C 49.7497,66.326 50.7497,64.6594 52.5,63.5 Z"/></g>
<g><path style="opacity:0.973" fill="#081225" d="M 29.5,67.5 C 29.8799,69.698 29.2132,71.3646 27.5,72.5C 27.4021,70.4471 28.0687,68.7804 29.5,67.5 Z"/></g>
<g><path style="opacity:0.627" fill="#010612" d="M 48.5,70.5 C 48.0198,73.4432 47.0198,76.1098 45.5,78.5C 45.4152,75.3511 46.4152,72.6845 48.5,70.5 Z"/></g>
<g><path style="opacity:0.945" fill="#050c1c" d="M 27.5,72.5 C 27.7406,74.8984 27.0739,76.8984 25.5,78.5C 25.595,76.2143 26.2616,74.2143 27.5,72.5 Z"/></g>
<g><path style="opacity:0.409" fill="#000001" d="M 175.5,119.5 C 176.124,111.181 176.457,102.848 176.5,94.5C 152.167,94.5 127.833,94.5 103.5,94.5C 103.5,99.1667 103.5,103.833 103.5,108.5C 103.5,108.833 103.5,109.167 103.5,109.5C 102.512,104.36 102.179,99.0262 102.5,93.5C 127.5,93.5 152.5,93.5 177.5,93.5C 177.912,102.4 177.246,111.067 175.5,119.5 Z"/></g>
<g><path style="opacity:0.776" fill="#00050f" d="M 23.5,89.5 C 23.014,101.974 24.014,114.307 26.5,126.5C 24.4206,122.183 23.254,117.516 23,112.5C 22.1777,104.655 22.3443,96.9887 23.5,89.5 Z"/></g>
<g><path style="opacity:0.776" fill="#000916" d="M 44.5,81.5 C 42.3609,92.7804 42.0276,104.114 43.5,115.5C 40.6717,104.082 41.005,92.7486 44.5,81.5 Z"/></g>
<g><path style="opacity:0.855" fill="#000b1a" d="M 103.5,109.5 C 103.5,109.167 103.5,108.833 103.5,108.5C 122.5,108.5 141.5,108.5 160.5,108.5C 160.13,112.774 159.13,116.774 157.5,120.5C 157.794,116.9 158.46,113.4 159.5,110C 140.836,109.5 122.17,109.333 103.5,109.5 Z"/></g>
<g><path style="opacity:0.269" fill="#00040c" d="M 175.5,120.5 C 175.59,123.152 174.924,125.485 173.5,127.5C 173.41,124.848 174.076,122.515 175.5,120.5 Z"/></g>
<g><path style="opacity:0.945" fill="#040c1b" d="M 157.5,121.5 C 157.741,123.898 157.074,125.898 155.5,127.5C 155.595,125.214 156.262,123.214 157.5,121.5 Z"/></g>
<g><path style="opacity:0.941" fill="#071021" d="M 43.5,115.5 C 45.2035,119.617 46.5368,123.951 47.5,128.5C 44.7997,124.728 43.4664,120.395 43.5,115.5 Z"/></g>
<g><path style="opacity:0.173" fill="#00050d" d="M 173.5,127.5 C 173.472,130.916 172.472,133.916 170.5,136.5C 170.928,133.215 171.928,130.215 173.5,127.5 Z"/></g>
<g><path style="opacity:0.365" fill="#000206" d="M 154.5,129.5 C 154.771,131.38 154.104,132.713 152.5,133.5C 152.66,131.847 153.326,130.514 154.5,129.5 Z"/></g>
<g><path style="opacity:0.639" fill="#00050d" d="M 51.5,136.5 C 52.9063,136.973 53.573,137.973 53.5,139.5C 52.0937,139.027 51.427,138.027 51.5,136.5 Z"/></g>
<g><path style="opacity:0.667" fill="#000611" d="M 29.5,134.5 C 31.341,136.849 32.6743,139.515 33.5,142.5C 31.127,140.421 29.7936,137.754 29.5,134.5 Z"/></g>
<g><path style="opacity:0.655" fill="#00050c" d="M 150.5,137.5 C 150.573,139.027 149.906,140.027 148.5,140.5C 148.427,138.973 149.094,137.973 150.5,137.5 Z"/></g>
<g><path style="opacity:0.882" fill="#00050d" d="M 53.5,139.5 C 54.9063,139.973 55.573,140.973 55.5,142.5C 54.0937,142.027 53.427,141.027 53.5,139.5 Z"/></g>
<g><path style="opacity:0.945" fill="#020917" d="M 55.5,142.5 C 58.8333,145.167 61.8333,148.167 64.5,151.5C 60.5,149.5 57.5,146.5 55.5,142.5 Z"/></g>
<g><path style="opacity:0.792" fill="#00040a" d="M 148.5,140.5 C 147.92,142.749 146.587,144.415 144.5,145.5C 145.08,143.251 146.413,141.585 148.5,140.5 Z"/></g>
<g><path style="opacity:0.914" fill="#050e1f" d="M 144.5,145.5 C 143.167,148.833 140.833,151.167 137.5,152.5C 139.5,149.833 141.833,147.5 144.5,145.5 Z"/></g>
<g><path style="opacity:0.043" fill="#00040b" d="M 165.5,146.5 C 165.573,148.027 164.906,149.027 163.5,149.5C 163.427,147.973 164.094,146.973 165.5,146.5 Z"/></g>
<g><path style="opacity:0.153" fill="#00050f" d="M 36.5,147.5 C 37.9063,147.973 38.573,148.973 38.5,150.5C 37.0937,150.027 36.427,149.027 36.5,147.5 Z"/></g>
<g><path style="opacity:0.012" fill="#000510" d="M 38.5,150.5 C 40.5869,151.585 41.9202,153.251 42.5,155.5C 40.4131,154.415 39.0798,152.749 38.5,150.5 Z"/></g>
<g><path style="opacity:0.063" fill="#00040d" d="M 65.5,152.5 C 67.0269,152.427 68.0269,153.094 68.5,154.5C 66.9731,154.573 65.9731,153.906 65.5,152.5 Z"/></g>
<g><path style="opacity:0.992" fill="#010a18" d="M 137.5,152.5 C 137.027,153.906 136.027,154.573 134.5,154.5C 134.973,153.094 135.973,152.427 137.5,152.5 Z"/></g>
<g><path style="opacity:0.063" fill="#00040c" d="M 68.5,154.5 C 70.0269,154.427 71.0269,155.094 71.5,156.5C 69.9731,156.573 68.9731,155.906 68.5,154.5 Z"/></g>
<g><path style="opacity:0.957" fill="#000814" d="M 134.5,154.5 C 134.027,155.906 133.027,156.573 131.5,156.5C 131.973,155.094 132.973,154.427 134.5,154.5 Z"/></g>
<g><path style="opacity:0.118" fill="#00040d" d="M 160.5,153.5 C 159.92,155.749 158.587,157.415 156.5,158.5C 157.08,156.251 158.413,154.585 160.5,153.5 Z"/></g>
<g><path style="opacity:0.718" fill="#000611" d="M 77.5,159.5 C 79.5529,159.402 81.2196,160.069 82.5,161.5C 80.4471,161.598 78.7804,160.931 77.5,159.5 Z"/></g>
<g><path style="opacity:0.945" fill="#080f1f" d="M 125.5,159.5 C 124.01,161.28 122.01,161.946 119.5,161.5C 121.214,160.262 123.214,159.595 125.5,159.5 Z"/></g>
<g><path style="opacity:0.961" fill="#030a19" d="M 48.5,161.5 C 50.7488,162.08 52.4154,163.413 53.5,165.5C 51.2512,164.92 49.5846,163.587 48.5,161.5 Z"/></g>
<g><path style="opacity:0.957" fill="#030a18" d="M 119.5,161.5 C 117.22,163.223 114.553,163.889 111.5,163.5C 113.961,162.469 116.627,161.802 119.5,161.5 Z"/></g>
<g><path style="opacity:0.29" fill="#00040e" d="M 152.5,162.5 C 151.738,164.262 150.404,165.262 148.5,165.5C 149.262,163.738 150.596,162.738 152.5,162.5 Z"/></g>
<g><path style="opacity:0.886" fill="#000713" d="M 53.5,165.5 C 55.4044,165.738 56.7377,166.738 57.5,168.5C 55.5956,168.262 54.2623,167.262 53.5,165.5 Z"/></g>
<g><path style="opacity:0.675" fill="#000610" d="M 59.5,169.5 C 61.0269,169.427 62.0269,170.094 62.5,171.5C 60.9731,171.573 59.9731,170.906 59.5,169.5 Z"/></g>
<g><path style="opacity:0.051" fill="#000206" d="M 141.5,170.5 C 141.027,171.906 140.027,172.573 138.5,172.5C 138.973,171.094 139.973,170.427 141.5,170.5 Z"/></g>
<g><path style="opacity:0.333" fill="#00040d" d="M 138.5,172.5 C 135.017,175.237 131.017,176.903 126.5,177.5C 130.213,175.315 134.213,173.648 138.5,172.5 Z"/></g>
<g><path style="opacity:0.953" fill="#080f21" d="M 68.5,174.5 C 70.698,174.12 72.3646,174.787 73.5,176.5C 71.4471,176.598 69.7804,175.931 68.5,174.5 Z"/></g>
<g><path style="opacity:0.945" fill="#040a18" d="M 76.5,177.5 C 88.3604,179.96 100.36,180.96 112.5,180.5C 100.275,182.398 88.2748,181.398 76.5,177.5 Z"/></g>
<g><path style="opacity:0.243" fill="#00030b" d="M 126.5,177.5 C 124.162,179.04 121.495,179.706 118.5,179.5C 120.905,178.232 123.572,177.565 126.5,177.5 Z"/></g>
</svg>
