<svg xmlns="http://www.w3.org/2000/svg" xmlns:xlink="http://www.w3.org/1999/xlink" width="500" zoomAndPan="magnify" viewBox="0 0 375 374.999991" height="500" preserveAspectRatio="xMidYMid meet" version="1.0"><defs><g/><clipPath id="32bb977a09"><path d="M 187.5 0 C 83.945312 0 0 83.945312 0 187.5 C 0 291.054688 83.945312 375 187.5 375 C 291.054688 375 375 291.054688 375 187.5 C 375 83.945312 291.054688 0 187.5 0 Z M 187.5 0 " clip-rule="nonzero"/></clipPath></defs><g clip-path="url(#32bb977a09)"><rect x="-37.5" width="450" fill="#ffffff" y="-37.499999" height="449.999989" fill-opacity="1"/></g><g fill="#ff00ff" fill-opacity="1"><g transform="translate(25.468443, 296.748742)"><g><path d="M 178.734375 43.421875 C 158.078125 43.421875 139.160156 40 121.984375 33.15625 C 104.804688 26.3125 89.429688 16.34375 75.859375 3.25 L 46.671875 -25.21875 C 33.578125 -37.957031 23.273438 -52.765625 15.765625 -69.640625 C 8.253906 -86.515625 4.5 -105.222656 4.5 -125.765625 C 4.5 -141.378906 6.75 -156.003906 11.25 -169.640625 C 15.757812 -183.273438 22.1875 -195.644531 30.53125 -206.75 C 38.882812 -217.863281 48.859375 -227.441406 60.453125 -235.484375 C 72.046875 -243.535156 84.925781 -249.722656 99.09375 -254.046875 C 113.269531 -258.378906 128.46875 -260.546875 144.6875 -260.546875 C 152.132812 -260.546875 160.453125 -260.035156 169.640625 -259.015625 C 178.828125 -257.992188 188.101562 -256.367188 197.46875 -254.140625 C 206.84375 -251.921875 215.492188 -249.007812 223.421875 -245.40625 L 260.90625 -207.921875 L 260.90625 -145.046875 C 256.820312 -147.804688 251.832031 -150.566406 245.9375 -153.328125 C 240.050781 -156.097656 233.65625 -158.648438 226.75 -160.984375 C 219.84375 -163.328125 212.816406 -165.21875 205.671875 -166.65625 C 198.523438 -168.101562 191.707031 -168.828125 185.21875 -168.828125 C 168.53125 -168.828125 153.90625 -165.734375 141.34375 -159.546875 C 128.789062 -153.359375 119.03125 -144.707031 112.0625 -133.59375 C 105.101562 -122.488281 101.625 -109.488281 101.625 -94.59375 C 101.625 -80.414062 104.742188 -68.765625 110.984375 -59.640625 C 122.640625 -54.472656 135.796875 -51.890625 150.453125 -51.890625 C 159.816406 -51.890625 168.582031 -52.910156 176.75 -54.953125 L 176.75 -60 L 170.09375 -60.359375 L 134.234375 -96.390625 L 134.234375 -149.546875 L 237.109375 -149.546875 L 276.75 -111.890625 L 276.75 21.984375 C 271.46875 24.984375 265.015625 27.773438 257.390625 30.359375 C 249.765625 32.941406 241.503906 35.222656 232.609375 37.203125 C 223.722656 39.191406 214.65625 40.722656 205.40625 41.796875 C 196.15625 42.878906 187.265625 43.421875 178.734375 43.421875 Z M 142.875 2.890625 C 150.570312 2.890625 158.59375 2.375 166.9375 1.34375 C 175.28125 0.320312 183.476562 -1.113281 191.53125 -2.96875 C 199.582031 -4.832031 207.148438 -7.023438 214.234375 -9.546875 C 221.316406 -12.066406 227.441406 -14.769531 232.609375 -17.65625 L 232.609375 -143.0625 L 140.71875 -143.0625 L 140.71875 -100.90625 L 183.25 -100.90625 L 183.25 -50.09375 C 173.269531 -46.96875 162.335938 -45.40625 150.453125 -45.40625 C 137.359375 -45.40625 125.460938 -47.296875 114.765625 -51.078125 C 104.078125 -54.859375 94.890625 -60.265625 87.203125 -67.296875 C 79.515625 -74.328125 73.566406 -82.707031 69.359375 -92.4375 C 65.160156 -102.164062 63.003906 -113.035156 62.890625 -125.046875 C 62.890625 -137.054688 65.050781 -148.015625 69.375 -157.921875 C 73.695312 -167.835938 79.847656 -176.367188 87.828125 -183.515625 C 95.816406 -190.660156 105.335938 -196.15625 116.390625 -200 C 127.441406 -203.84375 139.632812 -205.765625 152.96875 -205.765625 C 160.65625 -205.765625 168.429688 -205.160156 176.296875 -203.953125 C 184.171875 -202.753906 191.738281 -201.046875 199 -198.828125 C 206.269531 -196.609375 212.789062 -193.9375 218.5625 -190.8125 L 218.5625 -240.359375 C 210.988281 -243.597656 202.816406 -246.238281 194.046875 -248.28125 C 185.285156 -250.320312 176.640625 -251.789062 168.109375 -252.6875 C 159.578125 -253.59375 151.769531 -254.046875 144.6875 -254.046875 C 129.1875 -254.046875 114.648438 -252.003906 101.078125 -247.921875 C 87.503906 -243.835938 75.222656 -237.984375 64.234375 -230.359375 C 53.242188 -222.734375 43.753906 -213.601562 35.765625 -202.96875 C 27.773438 -192.34375 21.644531 -180.539062 17.375 -167.5625 C 13.113281 -154.59375 10.984375 -140.660156 10.984375 -125.765625 C 10.984375 -106.910156 14.226562 -89.644531 20.71875 -73.96875 C 27.207031 -58.289062 36.335938 -44.742188 48.109375 -33.328125 C 59.878906 -21.921875 73.8125 -13.09375 89.90625 -6.84375 C 106 -0.601562 123.65625 2.640625 142.875 2.890625 Z M 254.421875 -156.21875 L 254.421875 -205.40625 L 225.046875 -234.78125 L 225.046875 -185.578125 Z M 131.890625 -194.59375 L 135.140625 -194.59375 L 135.140625 -197.84375 L 134.59375 -197.84375 L 131.890625 -197.296875 Z M 145.046875 -194.953125 L 147.5625 -194.953125 L 147.5625 -197.484375 L 145.046875 -197.484375 Z M 158.375 -195.3125 L 160 -195.3125 L 160 -196.9375 L 158.375 -196.9375 Z M 119.09375 -194.046875 L 122.515625 -194.046875 L 122.515625 -195.140625 Z M 111.71875 -187.203125 L 116.578125 -187.203125 L 116.578125 -192.25 L 114.234375 -192.25 L 111.71875 -191.171875 Z M 125.046875 -187.75 L 129.015625 -187.75 L 129.015625 -191.71875 L 125.046875 -191.71875 Z M 138.203125 -188.109375 L 141.4375 -188.109375 L 141.4375 -191.34375 L 138.203125 -191.34375 Z M 151.53125 -188.46875 L 154.046875 -188.46875 L 154.046875 -190.984375 L 151.53125 -190.984375 Z M 164.6875 -188.828125 L 166.3125 -188.828125 L 166.3125 -190.625 L 164.6875 -190.625 Z M 105.046875 -180.546875 L 110.625 -180.546875 L 110.625 -186.125 L 105.046875 -186.125 Z M 118.203125 -180.90625 L 123.0625 -180.90625 L 123.0625 -185.765625 L 118.203125 -185.765625 Z M 131.34375 -181.265625 L 135.5 -181.265625 L 135.5 -185.40625 L 131.34375 -185.40625 Z M 144.6875 -181.625 L 147.921875 -181.625 L 147.921875 -184.859375 L 144.6875 -184.859375 Z M 158.015625 -182.15625 L 160.359375 -182.15625 L 160.359375 -184.5 L 158.015625 -184.5 Z M 171.171875 -182.515625 L 172.796875 -182.515625 L 172.796875 -184.140625 L 171.171875 -184.140625 Z M 100.546875 -65.21875 C 96.941406 -73.507812 95.140625 -83.300781 95.140625 -94.59375 C 95.140625 -95.3125 95.140625 -96.0625 95.140625 -96.84375 C 95.140625 -97.625 95.195312 -98.375 95.3125 -99.09375 L 94.234375 -99.09375 L 94.234375 -100.90625 L 95.3125 -100.90625 C 95.675781 -106.1875 96.515625 -111.289062 97.828125 -116.21875 C 99.148438 -121.144531 100.835938 -125.828125 102.890625 -130.265625 L 99.640625 -130.265625 L 99.640625 -134.046875 L 103.421875 -134.046875 L 103.421875 -131.171875 C 103.898438 -132.015625 104.347656 -132.828125 104.765625 -133.609375 C 105.191406 -134.390625 105.644531 -135.195312 106.125 -136.03125 L 105.578125 -136.03125 L 105.578125 -140.90625 L 109.1875 -140.90625 L 111.71875 -144.140625 L 111.71875 -147.5625 L 114.59375 -147.5625 L 117.84375 -150.8125 L 117.84375 -154.421875 L 121.796875 -154.421875 L 123.78125 -156.03125 L 123.78125 -160.90625 L 117.484375 -160.90625 L 117.484375 -167.203125 L 110.984375 -167.203125 L 110.984375 -173.6875 L 104.5 -173.6875 L 104.5 -180.1875 L 98.203125 -180.1875 L 98.203125 -183.421875 L 93.875 -180.1875 L 98.203125 -180.1875 L 98.203125 -174.046875 L 92.078125 -174.046875 L 92.078125 -178.5625 C 90.273438 -176.875 88.53125 -175.128906 86.84375 -173.328125 L 91.34375 -173.328125 L 91.34375 -168.109375 L 86.125 -168.109375 L 86.125 -172.4375 C 85.28125 -171.59375 84.46875 -170.660156 83.6875 -169.640625 C 82.90625 -168.617188 82.15625 -167.566406 81.4375 -166.484375 L 84.5 -166.484375 L 84.5 -161.984375 L 80 -161.984375 L 80 -164.140625 C 79.519531 -163.421875 79.066406 -162.703125 78.640625 -161.984375 C 78.222656 -161.265625 77.835938 -160.539062 77.484375 -159.8125 L 77.84375 -159.8125 L 77.84375 -155.859375 L 75.5 -155.859375 C 71.53125 -146.960938 69.488281 -137.234375 69.375 -126.671875 L 70.453125 -126.671875 L 70.453125 -124.859375 L 69.375 -124.859375 C 69.375 -112.253906 71.984375 -100.90625 77.203125 -90.8125 C 82.429688 -80.71875 90.210938 -72.1875 100.546875 -65.21875 Z M 111.34375 -174.046875 L 117.109375 -174.046875 L 117.109375 -179.8125 L 111.34375 -179.8125 Z M 124.6875 -174.421875 L 129.546875 -174.421875 L 129.546875 -179.28125 L 124.6875 -179.28125 Z M 137.84375 -174.78125 L 141.984375 -174.78125 L 141.984375 -178.921875 L 137.84375 -178.921875 Z M 151.171875 -175.3125 L 154.421875 -175.3125 L 154.421875 -178.5625 L 151.171875 -178.5625 Z M 164.328125 -175.671875 L 166.84375 -175.671875 L 166.84375 -178.203125 L 164.328125 -178.203125 Z M 177.65625 -176.03125 L 179.28125 -176.03125 L 179.28125 -177.65625 L 177.65625 -177.65625 Z M 98.5625 -167.5625 L 98.5625 -173.6875 L 104.5 -173.6875 L 104.5 -167.5625 Z M 117.84375 -167.75 L 123.421875 -167.75 L 123.421875 -173.328125 L 117.84375 -173.328125 Z M 130.984375 -168.109375 L 135.859375 -168.109375 L 135.859375 -172.96875 L 130.984375 -172.96875 Z M 144.328125 -168.46875 L 145.765625 -168.46875 L 148.28125 -169.375 L 148.28125 -172.4375 L 144.328125 -172.4375 Z M 105.046875 -161.265625 L 105.046875 -167.203125 L 110.984375 -167.203125 L 110.984375 -161.265625 Z M 92.4375 -161.625 L 92.4375 -166.84375 L 97.84375 -166.84375 L 97.84375 -161.625 Z M 124.328125 -161.265625 L 129.90625 -161.265625 L 129.90625 -166.84375 L 124.328125 -166.84375 Z M 137.484375 -164.6875 L 141.078125 -166.484375 L 137.484375 -166.484375 Z M 111.34375 -154.78125 L 111.34375 -160.90625 L 117.484375 -160.90625 L 117.484375 -154.78125 Z M 98.921875 -155.140625 L 98.921875 -160.546875 L 104.140625 -160.546875 L 104.140625 -155.140625 Z M 86.484375 -155.5 L 86.484375 -160.1875 L 90.984375 -160.1875 L 90.984375 -155.5 Z M 105.40625 -148.828125 L 105.40625 -154.046875 L 110.625 -154.046875 L 110.625 -148.828125 Z M 92.796875 -149.1875 L 92.796875 -153.6875 L 97.484375 -153.6875 L 97.484375 -149.1875 Z M 80.359375 -149.546875 L 80.359375 -153.328125 L 84.140625 -153.328125 L 84.140625 -149.546875 Z M 99.28125 -142.703125 L 99.28125 -147.203125 L 103.78125 -147.203125 L 103.78125 -142.703125 Z M 86.84375 -143.0625 L 86.84375 -146.84375 L 90.625 -146.84375 L 90.625 -143.0625 Z M 74.234375 -143.421875 L 74.234375 -146.484375 L 77.484375 -146.484375 L 77.484375 -143.421875 Z M 93.15625 -136.578125 L 93.15625 -140.546875 L 97.109375 -140.546875 L 97.109375 -136.578125 Z M 80.71875 -136.9375 L 80.71875 -140.1875 L 83.96875 -140.1875 L 83.96875 -136.9375 Z M 270.265625 17.296875 L 270.265625 -109.015625 L 264.6875 -109.015625 L 264.6875 -114.421875 L 263.421875 -115.5 L 258.203125 -115.5 L 258.203125 -120.546875 L 256.75 -121.984375 L 251.890625 -121.984375 L 251.890625 -126.484375 L 250.09375 -128.28125 L 245.40625 -128.28125 L 245.40625 -132.796875 L 243.25 -134.78125 L 239.09375 -134.78125 L 239.09375 -14.046875 Z M 87.203125 -130.625 L 87.203125 -133.6875 L 90.265625 -133.6875 L 90.265625 -130.625 Z M 74.59375 -130.984375 L 74.59375 -133.328125 L 77.109375 -133.328125 L 77.109375 -130.984375 Z M 93.515625 -124.140625 L 93.515625 -127.390625 L 96.75 -127.390625 L 96.75 -124.140625 Z M 81.078125 -124.5 L 81.078125 -127.03125 L 83.609375 -127.03125 L 83.609375 -124.5 Z M 239.640625 -122.34375 L 239.640625 -126.84375 L 244.328125 -126.84375 L 244.328125 -122.34375 Z M 87.5625 -118.015625 L 87.5625 -120.546875 L 89.90625 -120.546875 L 89.90625 -118.015625 Z M 245.953125 -115.859375 L 245.953125 -120.546875 L 250.625 -120.546875 L 250.625 -115.859375 Z M 74.953125 -118.375 L 74.953125 -120.1875 L 76.75 -120.1875 L 76.75 -118.375 Z M 93.875 -111.71875 L 93.875 -114.046875 L 96.390625 -114.046875 L 96.390625 -111.71875 Z M 252.25 -109.375 L 252.25 -114.046875 L 256.75 -114.046875 L 256.75 -109.375 Z M 81.4375 -111.890625 L 81.4375 -113.875 L 83.25 -113.875 L 83.25 -111.890625 Z M 240 -109.734375 L 240 -113.6875 L 243.96875 -113.6875 L 243.96875 -109.734375 Z M 258.5625 -103.0625 L 258.5625 -107.5625 L 263.25 -107.5625 L 263.25 -103.0625 Z M 87.75 -105.578125 L 87.75 -107.390625 L 89.546875 -107.390625 L 89.546875 -105.578125 Z M 246.3125 -103.421875 L 246.3125 -107.203125 L 250.265625 -107.203125 L 250.265625 -103.421875 Z M 265.046875 -96.578125 L 265.046875 -101.265625 L 269.734375 -101.265625 L 269.734375 -96.578125 Z M 252.609375 -96.9375 L 252.609375 -100.90625 L 256.390625 -100.90625 L 256.390625 -96.9375 Z M 240.1875 -97.296875 L 240.1875 -100.546875 L 243.421875 -100.546875 L 243.421875 -97.296875 Z M 258.921875 -90.453125 L 258.921875 -94.421875 L 262.875 -94.421875 L 262.875 -90.453125 Z M 246.671875 -90.8125 L 246.671875 -94.046875 L 249.90625 -94.046875 L 249.90625 -90.8125 Z M 265.40625 -84.140625 L 265.40625 -88.109375 L 269.375 -88.109375 L 269.375 -84.140625 Z M 252.96875 -84.5 L 252.96875 -87.75 L 256.03125 -87.75 L 256.03125 -84.5 Z M 240.359375 -84.859375 L 240.359375 -87.390625 L 242.875 -87.390625 L 242.875 -84.859375 Z M 259.28125 -78.015625 L 259.28125 -81.265625 L 262.515625 -81.265625 L 262.515625 -78.015625 Z M 246.84375 -78.375 L 246.84375 -80.90625 L 249.375 -80.90625 L 249.375 -78.375 Z M 265.765625 -71.53125 L 265.765625 -74.78125 L 269.015625 -74.78125 L 269.015625 -71.53125 Z M 253.15625 -71.890625 L 253.15625 -74.421875 L 255.859375 -74.421875 L 255.859375 -71.890625 Z M 240.71875 -72.25 L 240.71875 -74.046875 L 242.515625 -74.046875 L 242.515625 -72.25 Z M 259.640625 -65.578125 L 259.640625 -68.109375 L 262.15625 -68.109375 L 262.15625 -65.578125 Z M 247.203125 -65.953125 L 247.203125 -67.75 L 249.015625 -67.75 L 249.015625 -65.953125 Z M 266.125 -59.09375 L 266.125 -61.625 L 268.65625 -61.625 L 268.65625 -59.09375 Z M 253.515625 -59.453125 L 253.515625 -61.265625 L 255.5 -61.265625 L 255.5 -59.453125 Z M 260 -52.96875 L 260 -54.78125 L 261.796875 -54.78125 L 261.796875 -52.96875 Z M 266.484375 -46.671875 L 266.484375 -48.46875 L 268.28125 -48.46875 L 268.28125 -46.671875 Z M 232.796875 -10.453125 L 235.671875 -10.453125 L 235.671875 -12.078125 Z M 236.578125 -4.328125 L 241.984375 -4.328125 L 241.984375 -9.734375 L 236.578125 -9.734375 Z M 224.328125 -4.5 L 229.1875 -4.5 L 229.1875 -8.65625 L 224.328125 -6.484375 Z M 242.703125 1.984375 L 248.109375 1.984375 L 248.109375 -3.421875 L 242.703125 -3.421875 Z M 230.453125 1.796875 L 235.5 1.796875 L 235.5 -3.25 L 230.453125 -3.25 Z M 218.203125 1.625 L 222.703125 1.4375 L 222.703125 -2.890625 L 218.375 -2.890625 Z M 206.125 1.265625 L 210.09375 1.265625 L 210.09375 -1.265625 L 206.125 0 Z M 249.015625 8.109375 L 254.421875 8.109375 L 254.421875 2.703125 L 249.015625 2.703125 Z M 236.75 7.921875 L 241.625 7.921875 L 241.625 3.0625 L 236.75 3.0625 Z M 224.5 7.75 L 229.015625 7.75 L 229.015625 3.25 L 224.5 3.25 Z M 212.25 7.5625 L 216.21875 7.5625 L 216.21875 3.609375 L 212.25 3.609375 Z M 200 7.390625 L 203.609375 7.390625 L 203.609375 3.78125 L 200 3.78125 Z M 187.75 7.203125 L 190.8125 7.203125 L 190.8125 4.140625 L 189.375 4.140625 L 187.75 4.5 Z M 175.671875 7.03125 L 178.203125 7.03125 L 178.203125 6.3125 L 175.671875 6.671875 Z M 255.140625 14.421875 L 260.546875 14.421875 L 260.546875 9.015625 L 255.140625 9.015625 Z M 242.875 14.234375 L 247.921875 14.234375 L 247.921875 9.1875 L 242.875 9.1875 Z M 230.625 14.046875 L 235.140625 13.875 L 235.140625 9.546875 L 230.8125 9.546875 Z M 218.5625 13.6875 L 222.515625 13.6875 L 222.515625 9.734375 L 218.5625 9.734375 Z M 206.3125 13.515625 L 209.734375 13.515625 L 209.734375 10.09375 L 206.3125 10.09375 Z M 194.046875 13.328125 L 197.109375 13.328125 L 197.109375 10.265625 L 194.046875 10.265625 Z M 181.796875 13.15625 L 184.328125 13.15625 L 184.328125 10.625 L 181.796875 10.625 Z M 169.546875 12.96875 L 171.71875 12.96875 L 171.71875 10.8125 L 169.546875 10.8125 Z M 157.296875 12.796875 L 158.921875 12.609375 L 158.921875 11.171875 L 157.296875 11.171875 Z M 261.4375 20.546875 L 264.859375 20.546875 L 266.84375 19.640625 L 266.84375 15.140625 L 261.4375 15.140625 Z M 249.1875 20.359375 L 254.046875 20.359375 L 254.046875 15.5 L 249.1875 15.5 Z M 236.9375 20.1875 L 241.4375 20.1875 L 241.4375 15.671875 L 236.9375 15.671875 Z M 224.6875 20 L 228.65625 20 L 228.65625 16.03125 L 224.6875 16.03125 Z M 212.4375 19.8125 L 216.03125 19.8125 L 216.03125 16.21875 L 212.4375 16.21875 Z M 200.1875 19.640625 L 203.25 19.640625 L 203.25 16.578125 L 200.1875 16.578125 Z M 188.109375 19.28125 L 190.625 19.28125 L 190.625 16.75 L 188.109375 16.75 Z M 175.859375 19.09375 L 177.84375 19.09375 L 177.84375 17.109375 L 175.859375 17.109375 Z M 163.609375 18.921875 L 165.21875 18.921875 L 165.21875 17.296875 L 163.609375 17.296875 Z M 255.3125 24.328125 L 260.359375 22.34375 L 260.359375 21.625 L 255.3125 21.625 Z M 243.0625 26.484375 L 247.5625 26.3125 L 247.5625 21.984375 L 243.25 21.984375 Z M 230.984375 26.125 L 234.953125 26.125 L 234.953125 22.15625 L 230.984375 22.15625 Z M 218.734375 25.953125 L 222.15625 25.953125 L 222.15625 22.515625 L 218.734375 22.515625 Z M 206.484375 25.765625 L 209.546875 25.765625 L 209.546875 22.703125 L 206.484375 22.703125 Z M 194.234375 25.578125 L 196.75 25.578125 L 196.75 23.0625 L 194.234375 23.0625 Z M 181.984375 25.40625 L 184.140625 25.40625 L 184.140625 23.25 L 181.984375 23.25 Z M 169.734375 25.046875 L 171.34375 25.046875 L 171.34375 23.421875 L 169.734375 23.421875 Z M 237.109375 29.546875 L 241.078125 28.46875 L 237.109375 28.46875 Z M 224.859375 32.25 L 228.46875 31.53125 L 228.46875 28.65625 L 224.859375 28.65625 Z M 212.609375 32.078125 L 215.671875 32.078125 L 215.671875 29.015625 L 212.609375 29.015625 Z M 200.546875 31.71875 L 203.0625 31.71875 L 203.0625 29.1875 L 200.546875 29.1875 Z M 188.28125 31.53125 L 190.265625 31.53125 L 190.265625 29.546875 L 188.28125 29.546875 Z M 176.03125 31.34375 L 177.65625 31.34375 L 177.65625 29.734375 L 176.03125 29.734375 Z M 194.421875 36.390625 L 196.578125 36.21875 L 196.578125 35.5 L 194.421875 35.5 Z M 182.15625 36.9375 L 183.78125 36.9375 L 183.78125 35.859375 L 182.15625 35.859375 Z M 182.15625 36.9375 "/></g></g></g><g fill="#00ffff" fill-opacity="1"><g transform="translate(25.468443, 284.248749)"><g><path d="M 178.734375 43.421875 C 158.078125 43.421875 139.160156 40 121.984375 33.15625 C 104.804688 26.3125 89.429688 16.34375 75.859375 3.25 L 46.671875 -25.21875 C 33.578125 -37.957031 23.273438 -52.765625 15.765625 -69.640625 C 8.253906 -86.515625 4.5 -105.222656 4.5 -125.765625 C 4.5 -141.378906 6.75 -156.003906 11.25 -169.640625 C 15.757812 -183.273438 22.1875 -195.644531 30.53125 -206.75 C 38.882812 -217.863281 48.859375 -227.441406 60.453125 -235.484375 C 72.046875 -243.535156 84.925781 -249.722656 99.09375 -254.046875 C 113.269531 -258.378906 128.46875 -260.546875 144.6875 -260.546875 C 152.132812 -260.546875 160.453125 -260.035156 169.640625 -259.015625 C 178.828125 -257.992188 188.101562 -256.367188 197.46875 -254.140625 C 206.84375 -251.921875 215.492188 -249.007812 223.421875 -245.40625 L 260.90625 -207.921875 L 260.90625 -145.046875 C 256.820312 -147.804688 251.832031 -150.566406 245.9375 -153.328125 C 240.050781 -156.097656 233.65625 -158.648438 226.75 -160.984375 C 219.84375 -163.328125 212.816406 -165.21875 205.671875 -166.65625 C 198.523438 -168.101562 191.707031 -168.828125 185.21875 -168.828125 C 168.53125 -168.828125 153.90625 -165.734375 141.34375 -159.546875 C 128.789062 -153.359375 119.03125 -144.707031 112.0625 -133.59375 C 105.101562 -122.488281 101.625 -109.488281 101.625 -94.59375 C 101.625 -80.414062 104.742188 -68.765625 110.984375 -59.640625 C 122.640625 -54.472656 135.796875 -51.890625 150.453125 -51.890625 C 159.816406 -51.890625 168.582031 -52.910156 176.75 -54.953125 L 176.75 -60 L 170.09375 -60.359375 L 134.234375 -96.390625 L 134.234375 -149.546875 L 237.109375 -149.546875 L 276.75 -111.890625 L 276.75 21.984375 C 271.46875 24.984375 265.015625 27.773438 257.390625 30.359375 C 249.765625 32.941406 241.503906 35.222656 232.609375 37.203125 C 223.722656 39.191406 214.65625 40.722656 205.40625 41.796875 C 196.15625 42.878906 187.265625 43.421875 178.734375 43.421875 Z M 142.875 2.890625 C 150.570312 2.890625 158.59375 2.375 166.9375 1.34375 C 175.28125 0.320312 183.476562 -1.113281 191.53125 -2.96875 C 199.582031 -4.832031 207.148438 -7.023438 214.234375 -9.546875 C 221.316406 -12.066406 227.441406 -14.769531 232.609375 -17.65625 L 232.609375 -143.0625 L 140.71875 -143.0625 L 140.71875 -100.90625 L 183.25 -100.90625 L 183.25 -50.09375 C 173.269531 -46.96875 162.335938 -45.40625 150.453125 -45.40625 C 137.359375 -45.40625 125.460938 -47.296875 114.765625 -51.078125 C 104.078125 -54.859375 94.890625 -60.265625 87.203125 -67.296875 C 79.515625 -74.328125 73.566406 -82.707031 69.359375 -92.4375 C 65.160156 -102.164062 63.003906 -113.035156 62.890625 -125.046875 C 62.890625 -137.054688 65.050781 -148.015625 69.375 -157.921875 C 73.695312 -167.835938 79.847656 -176.367188 87.828125 -183.515625 C 95.816406 -190.660156 105.335938 -196.15625 116.390625 -200 C 127.441406 -203.84375 139.632812 -205.765625 152.96875 -205.765625 C 160.65625 -205.765625 168.429688 -205.160156 176.296875 -203.953125 C 184.171875 -202.753906 191.738281 -201.046875 199 -198.828125 C 206.269531 -196.609375 212.789062 -193.9375 218.5625 -190.8125 L 218.5625 -240.359375 C 210.988281 -243.597656 202.816406 -246.238281 194.046875 -248.28125 C 185.285156 -250.320312 176.640625 -251.789062 168.109375 -252.6875 C 159.578125 -253.59375 151.769531 -254.046875 144.6875 -254.046875 C 129.1875 -254.046875 114.648438 -252.003906 101.078125 -247.921875 C 87.503906 -243.835938 75.222656 -237.984375 64.234375 -230.359375 C 53.242188 -222.734375 43.753906 -213.601562 35.765625 -202.96875 C 27.773438 -192.34375 21.644531 -180.539062 17.375 -167.5625 C 13.113281 -154.59375 10.984375 -140.660156 10.984375 -125.765625 C 10.984375 -106.910156 14.226562 -89.644531 20.71875 -73.96875 C 27.207031 -58.289062 36.335938 -44.742188 48.109375 -33.328125 C 59.878906 -21.921875 73.8125 -13.09375 89.90625 -6.84375 C 106 -0.601562 123.65625 2.640625 142.875 2.890625 Z M 254.421875 -156.21875 L 254.421875 -205.40625 L 225.046875 -234.78125 L 225.046875 -185.578125 Z M 131.890625 -194.59375 L 135.140625 -194.59375 L 135.140625 -197.84375 L 134.59375 -197.84375 L 131.890625 -197.296875 Z M 145.046875 -194.953125 L 147.5625 -194.953125 L 147.5625 -197.484375 L 145.046875 -197.484375 Z M 158.375 -195.3125 L 160 -195.3125 L 160 -196.9375 L 158.375 -196.9375 Z M 119.09375 -194.046875 L 122.515625 -194.046875 L 122.515625 -195.140625 Z M 111.71875 -187.203125 L 116.578125 -187.203125 L 116.578125 -192.25 L 114.234375 -192.25 L 111.71875 -191.171875 Z M 125.046875 -187.75 L 129.015625 -187.75 L 129.015625 -191.71875 L 125.046875 -191.71875 Z M 138.203125 -188.109375 L 141.4375 -188.109375 L 141.4375 -191.34375 L 138.203125 -191.34375 Z M 151.53125 -188.46875 L 154.046875 -188.46875 L 154.046875 -190.984375 L 151.53125 -190.984375 Z M 164.6875 -188.828125 L 166.3125 -188.828125 L 166.3125 -190.625 L 164.6875 -190.625 Z M 105.046875 -180.546875 L 110.625 -180.546875 L 110.625 -186.125 L 105.046875 -186.125 Z M 118.203125 -180.90625 L 123.0625 -180.90625 L 123.0625 -185.765625 L 118.203125 -185.765625 Z M 131.34375 -181.265625 L 135.5 -181.265625 L 135.5 -185.40625 L 131.34375 -185.40625 Z M 144.6875 -181.625 L 147.921875 -181.625 L 147.921875 -184.859375 L 144.6875 -184.859375 Z M 158.015625 -182.15625 L 160.359375 -182.15625 L 160.359375 -184.5 L 158.015625 -184.5 Z M 171.171875 -182.515625 L 172.796875 -182.515625 L 172.796875 -184.140625 L 171.171875 -184.140625 Z M 100.546875 -65.21875 C 96.941406 -73.507812 95.140625 -83.300781 95.140625 -94.59375 C 95.140625 -95.3125 95.140625 -96.0625 95.140625 -96.84375 C 95.140625 -97.625 95.195312 -98.375 95.3125 -99.09375 L 94.234375 -99.09375 L 94.234375 -100.90625 L 95.3125 -100.90625 C 95.675781 -106.1875 96.515625 -111.289062 97.828125 -116.21875 C 99.148438 -121.144531 100.835938 -125.828125 102.890625 -130.265625 L 99.640625 -130.265625 L 99.640625 -134.046875 L 103.421875 -134.046875 L 103.421875 -131.171875 C 103.898438 -132.015625 104.347656 -132.828125 104.765625 -133.609375 C 105.191406 -134.390625 105.644531 -135.195312 106.125 -136.03125 L 105.578125 -136.03125 L 105.578125 -140.90625 L 109.1875 -140.90625 L 111.71875 -144.140625 L 111.71875 -147.5625 L 114.59375 -147.5625 L 117.84375 -150.8125 L 117.84375 -154.421875 L 121.796875 -154.421875 L 123.78125 -156.03125 L 123.78125 -160.90625 L 117.484375 -160.90625 L 117.484375 -167.203125 L 110.984375 -167.203125 L 110.984375 -173.6875 L 104.5 -173.6875 L 104.5 -180.1875 L 98.203125 -180.1875 L 98.203125 -183.421875 L 93.875 -180.1875 L 98.203125 -180.1875 L 98.203125 -174.046875 L 92.078125 -174.046875 L 92.078125 -178.5625 C 90.273438 -176.875 88.53125 -175.128906 86.84375 -173.328125 L 91.34375 -173.328125 L 91.34375 -168.109375 L 86.125 -168.109375 L 86.125 -172.4375 C 85.28125 -171.59375 84.46875 -170.660156 83.6875 -169.640625 C 82.90625 -168.617188 82.15625 -167.566406 81.4375 -166.484375 L 84.5 -166.484375 L 84.5 -161.984375 L 80 -161.984375 L 80 -164.140625 C 79.519531 -163.421875 79.066406 -162.703125 78.640625 -161.984375 C 78.222656 -161.265625 77.835938 -160.539062 77.484375 -159.8125 L 77.84375 -159.8125 L 77.84375 -155.859375 L 75.5 -155.859375 C 71.53125 -146.960938 69.488281 -137.234375 69.375 -126.671875 L 70.453125 -126.671875 L 70.453125 -124.859375 L 69.375 -124.859375 C 69.375 -112.253906 71.984375 -100.90625 77.203125 -90.8125 C 82.429688 -80.71875 90.210938 -72.1875 100.546875 -65.21875 Z M 111.34375 -174.046875 L 117.109375 -174.046875 L 117.109375 -179.8125 L 111.34375 -179.8125 Z M 124.6875 -174.421875 L 129.546875 -174.421875 L 129.546875 -179.28125 L 124.6875 -179.28125 Z M 137.84375 -174.78125 L 141.984375 -174.78125 L 141.984375 -178.921875 L 137.84375 -178.921875 Z M 151.171875 -175.3125 L 154.421875 -175.3125 L 154.421875 -178.5625 L 151.171875 -178.5625 Z M 164.328125 -175.671875 L 166.84375 -175.671875 L 166.84375 -178.203125 L 164.328125 -178.203125 Z M 177.65625 -176.03125 L 179.28125 -176.03125 L 179.28125 -177.65625 L 177.65625 -177.65625 Z M 98.5625 -167.5625 L 98.5625 -173.6875 L 104.5 -173.6875 L 104.5 -167.5625 Z M 117.84375 -167.75 L 123.421875 -167.75 L 123.421875 -173.328125 L 117.84375 -173.328125 Z M 130.984375 -168.109375 L 135.859375 -168.109375 L 135.859375 -172.96875 L 130.984375 -172.96875 Z M 144.328125 -168.46875 L 145.765625 -168.46875 L 148.28125 -169.375 L 148.28125 -172.4375 L 144.328125 -172.4375 Z M 105.046875 -161.265625 L 105.046875 -167.203125 L 110.984375 -167.203125 L 110.984375 -161.265625 Z M 92.4375 -161.625 L 92.4375 -166.84375 L 97.84375 -166.84375 L 97.84375 -161.625 Z M 124.328125 -161.265625 L 129.90625 -161.265625 L 129.90625 -166.84375 L 124.328125 -166.84375 Z M 137.484375 -164.6875 L 141.078125 -166.484375 L 137.484375 -166.484375 Z M 111.34375 -154.78125 L 111.34375 -160.90625 L 117.484375 -160.90625 L 117.484375 -154.78125 Z M 98.921875 -155.140625 L 98.921875 -160.546875 L 104.140625 -160.546875 L 104.140625 -155.140625 Z M 86.484375 -155.5 L 86.484375 -160.1875 L 90.984375 -160.1875 L 90.984375 -155.5 Z M 105.40625 -148.828125 L 105.40625 -154.046875 L 110.625 -154.046875 L 110.625 -148.828125 Z M 92.796875 -149.1875 L 92.796875 -153.6875 L 97.484375 -153.6875 L 97.484375 -149.1875 Z M 80.359375 -149.546875 L 80.359375 -153.328125 L 84.140625 -153.328125 L 84.140625 -149.546875 Z M 99.28125 -142.703125 L 99.28125 -147.203125 L 103.78125 -147.203125 L 103.78125 -142.703125 Z M 86.84375 -143.0625 L 86.84375 -146.84375 L 90.625 -146.84375 L 90.625 -143.0625 Z M 74.234375 -143.421875 L 74.234375 -146.484375 L 77.484375 -146.484375 L 77.484375 -143.421875 Z M 93.15625 -136.578125 L 93.15625 -140.546875 L 97.109375 -140.546875 L 97.109375 -136.578125 Z M 80.71875 -136.9375 L 80.71875 -140.1875 L 83.96875 -140.1875 L 83.96875 -136.9375 Z M 270.265625 17.296875 L 270.265625 -109.015625 L 264.6875 -109.015625 L 264.6875 -114.421875 L 263.421875 -115.5 L 258.203125 -115.5 L 258.203125 -120.546875 L 256.75 -121.984375 L 251.890625 -121.984375 L 251.890625 -126.484375 L 250.09375 -128.28125 L 245.40625 -128.28125 L 245.40625 -132.796875 L 243.25 -134.78125 L 239.09375 -134.78125 L 239.09375 -14.046875 Z M 87.203125 -130.625 L 87.203125 -133.6875 L 90.265625 -133.6875 L 90.265625 -130.625 Z M 74.59375 -130.984375 L 74.59375 -133.328125 L 77.109375 -133.328125 L 77.109375 -130.984375 Z M 93.515625 -124.140625 L 93.515625 -127.390625 L 96.75 -127.390625 L 96.75 -124.140625 Z M 81.078125 -124.5 L 81.078125 -127.03125 L 83.609375 -127.03125 L 83.609375 -124.5 Z M 239.640625 -122.34375 L 239.640625 -126.84375 L 244.328125 -126.84375 L 244.328125 -122.34375 Z M 87.5625 -118.015625 L 87.5625 -120.546875 L 89.90625 -120.546875 L 89.90625 -118.015625 Z M 245.953125 -115.859375 L 245.953125 -120.546875 L 250.625 -120.546875 L 250.625 -115.859375 Z M 74.953125 -118.375 L 74.953125 -120.1875 L 76.75 -120.1875 L 76.75 -118.375 Z M 93.875 -111.71875 L 93.875 -114.046875 L 96.390625 -114.046875 L 96.390625 -111.71875 Z M 252.25 -109.375 L 252.25 -114.046875 L 256.75 -114.046875 L 256.75 -109.375 Z M 81.4375 -111.890625 L 81.4375 -113.875 L 83.25 -113.875 L 83.25 -111.890625 Z M 240 -109.734375 L 240 -113.6875 L 243.96875 -113.6875 L 243.96875 -109.734375 Z M 258.5625 -103.0625 L 258.5625 -107.5625 L 263.25 -107.5625 L 263.25 -103.0625 Z M 87.75 -105.578125 L 87.75 -107.390625 L 89.546875 -107.390625 L 89.546875 -105.578125 Z M 246.3125 -103.421875 L 246.3125 -107.203125 L 250.265625 -107.203125 L 250.265625 -103.421875 Z M 265.046875 -96.578125 L 265.046875 -101.265625 L 269.734375 -101.265625 L 269.734375 -96.578125 Z M 252.609375 -96.9375 L 252.609375 -100.90625 L 256.390625 -100.90625 L 256.390625 -96.9375 Z M 240.1875 -97.296875 L 240.1875 -100.546875 L 243.421875 -100.546875 L 243.421875 -97.296875 Z M 258.921875 -90.453125 L 258.921875 -94.421875 L 262.875 -94.421875 L 262.875 -90.453125 Z M 246.671875 -90.8125 L 246.671875 -94.046875 L 249.90625 -94.046875 L 249.90625 -90.8125 Z M 265.40625 -84.140625 L 265.40625 -88.109375 L 269.375 -88.109375 L 269.375 -84.140625 Z M 252.96875 -84.5 L 252.96875 -87.75 L 256.03125 -87.75 L 256.03125 -84.5 Z M 240.359375 -84.859375 L 240.359375 -87.390625 L 242.875 -87.390625 L 242.875 -84.859375 Z M 259.28125 -78.015625 L 259.28125 -81.265625 L 262.515625 -81.265625 L 262.515625 -78.015625 Z M 246.84375 -78.375 L 246.84375 -80.90625 L 249.375 -80.90625 L 249.375 -78.375 Z M 265.765625 -71.53125 L 265.765625 -74.78125 L 269.015625 -74.78125 L 269.015625 -71.53125 Z M 253.15625 -71.890625 L 253.15625 -74.421875 L 255.859375 -74.421875 L 255.859375 -71.890625 Z M 240.71875 -72.25 L 240.71875 -74.046875 L 242.515625 -74.046875 L 242.515625 -72.25 Z M 259.640625 -65.578125 L 259.640625 -68.109375 L 262.15625 -68.109375 L 262.15625 -65.578125 Z M 247.203125 -65.953125 L 247.203125 -67.75 L 249.015625 -67.75 L 249.015625 -65.953125 Z M 266.125 -59.09375 L 266.125 -61.625 L 268.65625 -61.625 L 268.65625 -59.09375 Z M 253.515625 -59.453125 L 253.515625 -61.265625 L 255.5 -61.265625 L 255.5 -59.453125 Z M 260 -52.96875 L 260 -54.78125 L 261.796875 -54.78125 L 261.796875 -52.96875 Z M 266.484375 -46.671875 L 266.484375 -48.46875 L 268.28125 -48.46875 L 268.28125 -46.671875 Z M 232.796875 -10.453125 L 235.671875 -10.453125 L 235.671875 -12.078125 Z M 236.578125 -4.328125 L 241.984375 -4.328125 L 241.984375 -9.734375 L 236.578125 -9.734375 Z M 224.328125 -4.5 L 229.1875 -4.5 L 229.1875 -8.65625 L 224.328125 -6.484375 Z M 242.703125 1.984375 L 248.109375 1.984375 L 248.109375 -3.421875 L 242.703125 -3.421875 Z M 230.453125 1.796875 L 235.5 1.796875 L 235.5 -3.25 L 230.453125 -3.25 Z M 218.203125 1.625 L 222.703125 1.4375 L 222.703125 -2.890625 L 218.375 -2.890625 Z M 206.125 1.265625 L 210.09375 1.265625 L 210.09375 -1.265625 L 206.125 0 Z M 249.015625 8.109375 L 254.421875 8.109375 L 254.421875 2.703125 L 249.015625 2.703125 Z M 236.75 7.921875 L 241.625 7.921875 L 241.625 3.0625 L 236.75 3.0625 Z M 224.5 7.75 L 229.015625 7.75 L 229.015625 3.25 L 224.5 3.25 Z M 212.25 7.5625 L 216.21875 7.5625 L 216.21875 3.609375 L 212.25 3.609375 Z M 200 7.390625 L 203.609375 7.390625 L 203.609375 3.78125 L 200 3.78125 Z M 187.75 7.203125 L 190.8125 7.203125 L 190.8125 4.140625 L 189.375 4.140625 L 187.75 4.5 Z M 175.671875 7.03125 L 178.203125 7.03125 L 178.203125 6.3125 L 175.671875 6.671875 Z M 255.140625 14.421875 L 260.546875 14.421875 L 260.546875 9.015625 L 255.140625 9.015625 Z M 242.875 14.234375 L 247.921875 14.234375 L 247.921875 9.1875 L 242.875 9.1875 Z M 230.625 14.046875 L 235.140625 13.875 L 235.140625 9.546875 L 230.8125 9.546875 Z M 218.5625 13.6875 L 222.515625 13.6875 L 222.515625 9.734375 L 218.5625 9.734375 Z M 206.3125 13.515625 L 209.734375 13.515625 L 209.734375 10.09375 L 206.3125 10.09375 Z M 194.046875 13.328125 L 197.109375 13.328125 L 197.109375 10.265625 L 194.046875 10.265625 Z M 181.796875 13.15625 L 184.328125 13.15625 L 184.328125 10.625 L 181.796875 10.625 Z M 169.546875 12.96875 L 171.71875 12.96875 L 171.71875 10.8125 L 169.546875 10.8125 Z M 157.296875 12.796875 L 158.921875 12.609375 L 158.921875 11.171875 L 157.296875 11.171875 Z M 261.4375 20.546875 L 264.859375 20.546875 L 266.84375 19.640625 L 266.84375 15.140625 L 261.4375 15.140625 Z M 249.1875 20.359375 L 254.046875 20.359375 L 254.046875 15.5 L 249.1875 15.5 Z M 236.9375 20.1875 L 241.4375 20.1875 L 241.4375 15.671875 L 236.9375 15.671875 Z M 224.6875 20 L 228.65625 20 L 228.65625 16.03125 L 224.6875 16.03125 Z M 212.4375 19.8125 L 216.03125 19.8125 L 216.03125 16.21875 L 212.4375 16.21875 Z M 200.1875 19.640625 L 203.25 19.640625 L 203.25 16.578125 L 200.1875 16.578125 Z M 188.109375 19.28125 L 190.625 19.28125 L 190.625 16.75 L 188.109375 16.75 Z M 175.859375 19.09375 L 177.84375 19.09375 L 177.84375 17.109375 L 175.859375 17.109375 Z M 163.609375 18.921875 L 165.21875 18.921875 L 165.21875 17.296875 L 163.609375 17.296875 Z M 255.3125 24.328125 L 260.359375 22.34375 L 260.359375 21.625 L 255.3125 21.625 Z M 243.0625 26.484375 L 247.5625 26.3125 L 247.5625 21.984375 L 243.25 21.984375 Z M 230.984375 26.125 L 234.953125 26.125 L 234.953125 22.15625 L 230.984375 22.15625 Z M 218.734375 25.953125 L 222.15625 25.953125 L 222.15625 22.515625 L 218.734375 22.515625 Z M 206.484375 25.765625 L 209.546875 25.765625 L 209.546875 22.703125 L 206.484375 22.703125 Z M 194.234375 25.578125 L 196.75 25.578125 L 196.75 23.0625 L 194.234375 23.0625 Z M 181.984375 25.40625 L 184.140625 25.40625 L 184.140625 23.25 L 181.984375 23.25 Z M 169.734375 25.046875 L 171.34375 25.046875 L 171.34375 23.421875 L 169.734375 23.421875 Z M 237.109375 29.546875 L 241.078125 28.46875 L 237.109375 28.46875 Z M 224.859375 32.25 L 228.46875 31.53125 L 228.46875 28.65625 L 224.859375 28.65625 Z M 212.609375 32.078125 L 215.671875 32.078125 L 215.671875 29.015625 L 212.609375 29.015625 Z M 200.546875 31.71875 L 203.0625 31.71875 L 203.0625 29.1875 L 200.546875 29.1875 Z M 188.28125 31.53125 L 190.265625 31.53125 L 190.265625 29.546875 L 188.28125 29.546875 Z M 176.03125 31.34375 L 177.65625 31.34375 L 177.65625 29.734375 L 176.03125 29.734375 Z M 194.421875 36.390625 L 196.578125 36.21875 L 196.578125 35.5 L 194.421875 35.5 Z M 182.15625 36.9375 L 183.78125 36.9375 L 183.78125 35.859375 L 182.15625 35.859375 Z M 182.15625 36.9375 "/></g></g></g><g fill="#000000" fill-opacity="1"><g transform="translate(25.468443, 290.498744)"><g><path d="M 178.734375 43.421875 C 158.078125 43.421875 139.160156 40 121.984375 33.15625 C 104.804688 26.3125 89.429688 16.34375 75.859375 3.25 L 46.671875 -25.21875 C 33.578125 -37.957031 23.273438 -52.765625 15.765625 -69.640625 C 8.253906 -86.515625 4.5 -105.222656 4.5 -125.765625 C 4.5 -141.378906 6.75 -156.003906 11.25 -169.640625 C 15.757812 -183.273438 22.1875 -195.644531 30.53125 -206.75 C 38.882812 -217.863281 48.859375 -227.441406 60.453125 -235.484375 C 72.046875 -243.535156 84.925781 -249.722656 99.09375 -254.046875 C 113.269531 -258.378906 128.46875 -260.546875 144.6875 -260.546875 C 152.132812 -260.546875 160.453125 -260.035156 169.640625 -259.015625 C 178.828125 -257.992188 188.101562 -256.367188 197.46875 -254.140625 C 206.84375 -251.921875 215.492188 -249.007812 223.421875 -245.40625 L 260.90625 -207.921875 L 260.90625 -145.046875 C 256.820312 -147.804688 251.832031 -150.566406 245.9375 -153.328125 C 240.050781 -156.097656 233.65625 -158.648438 226.75 -160.984375 C 219.84375 -163.328125 212.816406 -165.21875 205.671875 -166.65625 C 198.523438 -168.101562 191.707031 -168.828125 185.21875 -168.828125 C 168.53125 -168.828125 153.90625 -165.734375 141.34375 -159.546875 C 128.789062 -153.359375 119.03125 -144.707031 112.0625 -133.59375 C 105.101562 -122.488281 101.625 -109.488281 101.625 -94.59375 C 101.625 -80.414062 104.742188 -68.765625 110.984375 -59.640625 C 122.640625 -54.472656 135.796875 -51.890625 150.453125 -51.890625 C 159.816406 -51.890625 168.582031 -52.910156 176.75 -54.953125 L 176.75 -60 L 170.09375 -60.359375 L 134.234375 -96.390625 L 134.234375 -149.546875 L 237.109375 -149.546875 L 276.75 -111.890625 L 276.75 21.984375 C 271.46875 24.984375 265.015625 27.773438 257.390625 30.359375 C 249.765625 32.941406 241.503906 35.222656 232.609375 37.203125 C 223.722656 39.191406 214.65625 40.722656 205.40625 41.796875 C 196.15625 42.878906 187.265625 43.421875 178.734375 43.421875 Z M 142.875 2.890625 C 150.570312 2.890625 158.59375 2.375 166.9375 1.34375 C 175.28125 0.320312 183.476562 -1.113281 191.53125 -2.96875 C 199.582031 -4.832031 207.148438 -7.023438 214.234375 -9.546875 C 221.316406 -12.066406 227.441406 -14.769531 232.609375 -17.65625 L 232.609375 -143.0625 L 140.71875 -143.0625 L 140.71875 -100.90625 L 183.25 -100.90625 L 183.25 -50.09375 C 173.269531 -46.96875 162.335938 -45.40625 150.453125 -45.40625 C 137.359375 -45.40625 125.460938 -47.296875 114.765625 -51.078125 C 104.078125 -54.859375 94.890625 -60.265625 87.203125 -67.296875 C 79.515625 -74.328125 73.566406 -82.707031 69.359375 -92.4375 C 65.160156 -102.164062 63.003906 -113.035156 62.890625 -125.046875 C 62.890625 -137.054688 65.050781 -148.015625 69.375 -157.921875 C 73.695312 -167.835938 79.847656 -176.367188 87.828125 -183.515625 C 95.816406 -190.660156 105.335938 -196.15625 116.390625 -200 C 127.441406 -203.84375 139.632812 -205.765625 152.96875 -205.765625 C 160.65625 -205.765625 168.429688 -205.160156 176.296875 -203.953125 C 184.171875 -202.753906 191.738281 -201.046875 199 -198.828125 C 206.269531 -196.609375 212.789062 -193.9375 218.5625 -190.8125 L 218.5625 -240.359375 C 210.988281 -243.597656 202.816406 -246.238281 194.046875 -248.28125 C 185.285156 -250.320312 176.640625 -251.789062 168.109375 -252.6875 C 159.578125 -253.59375 151.769531 -254.046875 144.6875 -254.046875 C 129.1875 -254.046875 114.648438 -252.003906 101.078125 -247.921875 C 87.503906 -243.835938 75.222656 -237.984375 64.234375 -230.359375 C 53.242188 -222.734375 43.753906 -213.601562 35.765625 -202.96875 C 27.773438 -192.34375 21.644531 -180.539062 17.375 -167.5625 C 13.113281 -154.59375 10.984375 -140.660156 10.984375 -125.765625 C 10.984375 -106.910156 14.226562 -89.644531 20.71875 -73.96875 C 27.207031 -58.289062 36.335938 -44.742188 48.109375 -33.328125 C 59.878906 -21.921875 73.8125 -13.09375 89.90625 -6.84375 C 106 -0.601562 123.65625 2.640625 142.875 2.890625 Z M 254.421875 -156.21875 L 254.421875 -205.40625 L 225.046875 -234.78125 L 225.046875 -185.578125 Z M 131.890625 -194.59375 L 135.140625 -194.59375 L 135.140625 -197.84375 L 134.59375 -197.84375 L 131.890625 -197.296875 Z M 145.046875 -194.953125 L 147.5625 -194.953125 L 147.5625 -197.484375 L 145.046875 -197.484375 Z M 158.375 -195.3125 L 160 -195.3125 L 160 -196.9375 L 158.375 -196.9375 Z M 119.09375 -194.046875 L 122.515625 -194.046875 L 122.515625 -195.140625 Z M 111.71875 -187.203125 L 116.578125 -187.203125 L 116.578125 -192.25 L 114.234375 -192.25 L 111.71875 -191.171875 Z M 125.046875 -187.75 L 129.015625 -187.75 L 129.015625 -191.71875 L 125.046875 -191.71875 Z M 138.203125 -188.109375 L 141.4375 -188.109375 L 141.4375 -191.34375 L 138.203125 -191.34375 Z M 151.53125 -188.46875 L 154.046875 -188.46875 L 154.046875 -190.984375 L 151.53125 -190.984375 Z M 164.6875 -188.828125 L 166.3125 -188.828125 L 166.3125 -190.625 L 164.6875 -190.625 Z M 105.046875 -180.546875 L 110.625 -180.546875 L 110.625 -186.125 L 105.046875 -186.125 Z M 118.203125 -180.90625 L 123.0625 -180.90625 L 123.0625 -185.765625 L 118.203125 -185.765625 Z M 131.34375 -181.265625 L 135.5 -181.265625 L 135.5 -185.40625 L 131.34375 -185.40625 Z M 144.6875 -181.625 L 147.921875 -181.625 L 147.921875 -184.859375 L 144.6875 -184.859375 Z M 158.015625 -182.15625 L 160.359375 -182.15625 L 160.359375 -184.5 L 158.015625 -184.5 Z M 171.171875 -182.515625 L 172.796875 -182.515625 L 172.796875 -184.140625 L 171.171875 -184.140625 Z M 100.546875 -65.21875 C 96.941406 -73.507812 95.140625 -83.300781 95.140625 -94.59375 C 95.140625 -95.3125 95.140625 -96.0625 95.140625 -96.84375 C 95.140625 -97.625 95.195312 -98.375 95.3125 -99.09375 L 94.234375 -99.09375 L 94.234375 -100.90625 L 95.3125 -100.90625 C 95.675781 -106.1875 96.515625 -111.289062 97.828125 -116.21875 C 99.148438 -121.144531 100.835938 -125.828125 102.890625 -130.265625 L 99.640625 -130.265625 L 99.640625 -134.046875 L 103.421875 -134.046875 L 103.421875 -131.171875 C 103.898438 -132.015625 104.347656 -132.828125 104.765625 -133.609375 C 105.191406 -134.390625 105.644531 -135.195312 106.125 -136.03125 L 105.578125 -136.03125 L 105.578125 -140.90625 L 109.1875 -140.90625 L 111.71875 -144.140625 L 111.71875 -147.5625 L 114.59375 -147.5625 L 117.84375 -150.8125 L 117.84375 -154.421875 L 121.796875 -154.421875 L 123.78125 -156.03125 L 123.78125 -160.90625 L 117.484375 -160.90625 L 117.484375 -167.203125 L 110.984375 -167.203125 L 110.984375 -173.6875 L 104.5 -173.6875 L 104.5 -180.1875 L 98.203125 -180.1875 L 98.203125 -183.421875 L 93.875 -180.1875 L 98.203125 -180.1875 L 98.203125 -174.046875 L 92.078125 -174.046875 L 92.078125 -178.5625 C 90.273438 -176.875 88.53125 -175.128906 86.84375 -173.328125 L 91.34375 -173.328125 L 91.34375 -168.109375 L 86.125 -168.109375 L 86.125 -172.4375 C 85.28125 -171.59375 84.46875 -170.660156 83.6875 -169.640625 C 82.90625 -168.617188 82.15625 -167.566406 81.4375 -166.484375 L 84.5 -166.484375 L 84.5 -161.984375 L 80 -161.984375 L 80 -164.140625 C 79.519531 -163.421875 79.066406 -162.703125 78.640625 -161.984375 C 78.222656 -161.265625 77.835938 -160.539062 77.484375 -159.8125 L 77.84375 -159.8125 L 77.84375 -155.859375 L 75.5 -155.859375 C 71.53125 -146.960938 69.488281 -137.234375 69.375 -126.671875 L 70.453125 -126.671875 L 70.453125 -124.859375 L 69.375 -124.859375 C 69.375 -112.253906 71.984375 -100.90625 77.203125 -90.8125 C 82.429688 -80.71875 90.210938 -72.1875 100.546875 -65.21875 Z M 111.34375 -174.046875 L 117.109375 -174.046875 L 117.109375 -179.8125 L 111.34375 -179.8125 Z M 124.6875 -174.421875 L 129.546875 -174.421875 L 129.546875 -179.28125 L 124.6875 -179.28125 Z M 137.84375 -174.78125 L 141.984375 -174.78125 L 141.984375 -178.921875 L 137.84375 -178.921875 Z M 151.171875 -175.3125 L 154.421875 -175.3125 L 154.421875 -178.5625 L 151.171875 -178.5625 Z M 164.328125 -175.671875 L 166.84375 -175.671875 L 166.84375 -178.203125 L 164.328125 -178.203125 Z M 177.65625 -176.03125 L 179.28125 -176.03125 L 179.28125 -177.65625 L 177.65625 -177.65625 Z M 98.5625 -167.5625 L 98.5625 -173.6875 L 104.5 -173.6875 L 104.5 -167.5625 Z M 117.84375 -167.75 L 123.421875 -167.75 L 123.421875 -173.328125 L 117.84375 -173.328125 Z M 130.984375 -168.109375 L 135.859375 -168.109375 L 135.859375 -172.96875 L 130.984375 -172.96875 Z M 144.328125 -168.46875 L 145.765625 -168.46875 L 148.28125 -169.375 L 148.28125 -172.4375 L 144.328125 -172.4375 Z M 105.046875 -161.265625 L 105.046875 -167.203125 L 110.984375 -167.203125 L 110.984375 -161.265625 Z M 92.4375 -161.625 L 92.4375 -166.84375 L 97.84375 -166.84375 L 97.84375 -161.625 Z M 124.328125 -161.265625 L 129.90625 -161.265625 L 129.90625 -166.84375 L 124.328125 -166.84375 Z M 137.484375 -164.6875 L 141.078125 -166.484375 L 137.484375 -166.484375 Z M 111.34375 -154.78125 L 111.34375 -160.90625 L 117.484375 -160.90625 L 117.484375 -154.78125 Z M 98.921875 -155.140625 L 98.921875 -160.546875 L 104.140625 -160.546875 L 104.140625 -155.140625 Z M 86.484375 -155.5 L 86.484375 -160.1875 L 90.984375 -160.1875 L 90.984375 -155.5 Z M 105.40625 -148.828125 L 105.40625 -154.046875 L 110.625 -154.046875 L 110.625 -148.828125 Z M 92.796875 -149.1875 L 92.796875 -153.6875 L 97.484375 -153.6875 L 97.484375 -149.1875 Z M 80.359375 -149.546875 L 80.359375 -153.328125 L 84.140625 -153.328125 L 84.140625 -149.546875 Z M 99.28125 -142.703125 L 99.28125 -147.203125 L 103.78125 -147.203125 L 103.78125 -142.703125 Z M 86.84375 -143.0625 L 86.84375 -146.84375 L 90.625 -146.84375 L 90.625 -143.0625 Z M 74.234375 -143.421875 L 74.234375 -146.484375 L 77.484375 -146.484375 L 77.484375 -143.421875 Z M 93.15625 -136.578125 L 93.15625 -140.546875 L 97.109375 -140.546875 L 97.109375 -136.578125 Z M 80.71875 -136.9375 L 80.71875 -140.1875 L 83.96875 -140.1875 L 83.96875 -136.9375 Z M 270.265625 17.296875 L 270.265625 -109.015625 L 264.6875 -109.015625 L 264.6875 -114.421875 L 263.421875 -115.5 L 258.203125 -115.5 L 258.203125 -120.546875 L 256.75 -121.984375 L 251.890625 -121.984375 L 251.890625 -126.484375 L 250.09375 -128.28125 L 245.40625 -128.28125 L 245.40625 -132.796875 L 243.25 -134.78125 L 239.09375 -134.78125 L 239.09375 -14.046875 Z M 87.203125 -130.625 L 87.203125 -133.6875 L 90.265625 -133.6875 L 90.265625 -130.625 Z M 74.59375 -130.984375 L 74.59375 -133.328125 L 77.109375 -133.328125 L 77.109375 -130.984375 Z M 93.515625 -124.140625 L 93.515625 -127.390625 L 96.75 -127.390625 L 96.75 -124.140625 Z M 81.078125 -124.5 L 81.078125 -127.03125 L 83.609375 -127.03125 L 83.609375 -124.5 Z M 239.640625 -122.34375 L 239.640625 -126.84375 L 244.328125 -126.84375 L 244.328125 -122.34375 Z M 87.5625 -118.015625 L 87.5625 -120.546875 L 89.90625 -120.546875 L 89.90625 -118.015625 Z M 245.953125 -115.859375 L 245.953125 -120.546875 L 250.625 -120.546875 L 250.625 -115.859375 Z M 74.953125 -118.375 L 74.953125 -120.1875 L 76.75 -120.1875 L 76.75 -118.375 Z M 93.875 -111.71875 L 93.875 -114.046875 L 96.390625 -114.046875 L 96.390625 -111.71875 Z M 252.25 -109.375 L 252.25 -114.046875 L 256.75 -114.046875 L 256.75 -109.375 Z M 81.4375 -111.890625 L 81.4375 -113.875 L 83.25 -113.875 L 83.25 -111.890625 Z M 240 -109.734375 L 240 -113.6875 L 243.96875 -113.6875 L 243.96875 -109.734375 Z M 258.5625 -103.0625 L 258.5625 -107.5625 L 263.25 -107.5625 L 263.25 -103.0625 Z M 87.75 -105.578125 L 87.75 -107.390625 L 89.546875 -107.390625 L 89.546875 -105.578125 Z M 246.3125 -103.421875 L 246.3125 -107.203125 L 250.265625 -107.203125 L 250.265625 -103.421875 Z M 265.046875 -96.578125 L 265.046875 -101.265625 L 269.734375 -101.265625 L 269.734375 -96.578125 Z M 252.609375 -96.9375 L 252.609375 -100.90625 L 256.390625 -100.90625 L 256.390625 -96.9375 Z M 240.1875 -97.296875 L 240.1875 -100.546875 L 243.421875 -100.546875 L 243.421875 -97.296875 Z M 258.921875 -90.453125 L 258.921875 -94.421875 L 262.875 -94.421875 L 262.875 -90.453125 Z M 246.671875 -90.8125 L 246.671875 -94.046875 L 249.90625 -94.046875 L 249.90625 -90.8125 Z M 265.40625 -84.140625 L 265.40625 -88.109375 L 269.375 -88.109375 L 269.375 -84.140625 Z M 252.96875 -84.5 L 252.96875 -87.75 L 256.03125 -87.75 L 256.03125 -84.5 Z M 240.359375 -84.859375 L 240.359375 -87.390625 L 242.875 -87.390625 L 242.875 -84.859375 Z M 259.28125 -78.015625 L 259.28125 -81.265625 L 262.515625 -81.265625 L 262.515625 -78.015625 Z M 246.84375 -78.375 L 246.84375 -80.90625 L 249.375 -80.90625 L 249.375 -78.375 Z M 265.765625 -71.53125 L 265.765625 -74.78125 L 269.015625 -74.78125 L 269.015625 -71.53125 Z M 253.15625 -71.890625 L 253.15625 -74.421875 L 255.859375 -74.421875 L 255.859375 -71.890625 Z M 240.71875 -72.25 L 240.71875 -74.046875 L 242.515625 -74.046875 L 242.515625 -72.25 Z M 259.640625 -65.578125 L 259.640625 -68.109375 L 262.15625 -68.109375 L 262.15625 -65.578125 Z M 247.203125 -65.953125 L 247.203125 -67.75 L 249.015625 -67.75 L 249.015625 -65.953125 Z M 266.125 -59.09375 L 266.125 -61.625 L 268.65625 -61.625 L 268.65625 -59.09375 Z M 253.515625 -59.453125 L 253.515625 -61.265625 L 255.5 -61.265625 L 255.5 -59.453125 Z M 260 -52.96875 L 260 -54.78125 L 261.796875 -54.78125 L 261.796875 -52.96875 Z M 266.484375 -46.671875 L 266.484375 -48.46875 L 268.28125 -48.46875 L 268.28125 -46.671875 Z M 232.796875 -10.453125 L 235.671875 -10.453125 L 235.671875 -12.078125 Z M 236.578125 -4.328125 L 241.984375 -4.328125 L 241.984375 -9.734375 L 236.578125 -9.734375 Z M 224.328125 -4.5 L 229.1875 -4.5 L 229.1875 -8.65625 L 224.328125 -6.484375 Z M 242.703125 1.984375 L 248.109375 1.984375 L 248.109375 -3.421875 L 242.703125 -3.421875 Z M 230.453125 1.796875 L 235.5 1.796875 L 235.5 -3.25 L 230.453125 -3.25 Z M 218.203125 1.625 L 222.703125 1.4375 L 222.703125 -2.890625 L 218.375 -2.890625 Z M 206.125 1.265625 L 210.09375 1.265625 L 210.09375 -1.265625 L 206.125 0 Z M 249.015625 8.109375 L 254.421875 8.109375 L 254.421875 2.703125 L 249.015625 2.703125 Z M 236.75 7.921875 L 241.625 7.921875 L 241.625 3.0625 L 236.75 3.0625 Z M 224.5 7.75 L 229.015625 7.75 L 229.015625 3.25 L 224.5 3.25 Z M 212.25 7.5625 L 216.21875 7.5625 L 216.21875 3.609375 L 212.25 3.609375 Z M 200 7.390625 L 203.609375 7.390625 L 203.609375 3.78125 L 200 3.78125 Z M 187.75 7.203125 L 190.8125 7.203125 L 190.8125 4.140625 L 189.375 4.140625 L 187.75 4.5 Z M 175.671875 7.03125 L 178.203125 7.03125 L 178.203125 6.3125 L 175.671875 6.671875 Z M 255.140625 14.421875 L 260.546875 14.421875 L 260.546875 9.015625 L 255.140625 9.015625 Z M 242.875 14.234375 L 247.921875 14.234375 L 247.921875 9.1875 L 242.875 9.1875 Z M 230.625 14.046875 L 235.140625 13.875 L 235.140625 9.546875 L 230.8125 9.546875 Z M 218.5625 13.6875 L 222.515625 13.6875 L 222.515625 9.734375 L 218.5625 9.734375 Z M 206.3125 13.515625 L 209.734375 13.515625 L 209.734375 10.09375 L 206.3125 10.09375 Z M 194.046875 13.328125 L 197.109375 13.328125 L 197.109375 10.265625 L 194.046875 10.265625 Z M 181.796875 13.15625 L 184.328125 13.15625 L 184.328125 10.625 L 181.796875 10.625 Z M 169.546875 12.96875 L 171.71875 12.96875 L 171.71875 10.8125 L 169.546875 10.8125 Z M 157.296875 12.796875 L 158.921875 12.609375 L 158.921875 11.171875 L 157.296875 11.171875 Z M 261.4375 20.546875 L 264.859375 20.546875 L 266.84375 19.640625 L 266.84375 15.140625 L 261.4375 15.140625 Z M 249.1875 20.359375 L 254.046875 20.359375 L 254.046875 15.5 L 249.1875 15.5 Z M 236.9375 20.1875 L 241.4375 20.1875 L 241.4375 15.671875 L 236.9375 15.671875 Z M 224.6875 20 L 228.65625 20 L 228.65625 16.03125 L 224.6875 16.03125 Z M 212.4375 19.8125 L 216.03125 19.8125 L 216.03125 16.21875 L 212.4375 16.21875 Z M 200.1875 19.640625 L 203.25 19.640625 L 203.25 16.578125 L 200.1875 16.578125 Z M 188.109375 19.28125 L 190.625 19.28125 L 190.625 16.75 L 188.109375 16.75 Z M 175.859375 19.09375 L 177.84375 19.09375 L 177.84375 17.109375 L 175.859375 17.109375 Z M 163.609375 18.921875 L 165.21875 18.921875 L 165.21875 17.296875 L 163.609375 17.296875 Z M 255.3125 24.328125 L 260.359375 22.34375 L 260.359375 21.625 L 255.3125 21.625 Z M 243.0625 26.484375 L 247.5625 26.3125 L 247.5625 21.984375 L 243.25 21.984375 Z M 230.984375 26.125 L 234.953125 26.125 L 234.953125 22.15625 L 230.984375 22.15625 Z M 218.734375 25.953125 L 222.15625 25.953125 L 222.15625 22.515625 L 218.734375 22.515625 Z M 206.484375 25.765625 L 209.546875 25.765625 L 209.546875 22.703125 L 206.484375 22.703125 Z M 194.234375 25.578125 L 196.75 25.578125 L 196.75 23.0625 L 194.234375 23.0625 Z M 181.984375 25.40625 L 184.140625 25.40625 L 184.140625 23.25 L 181.984375 23.25 Z M 169.734375 25.046875 L 171.34375 25.046875 L 171.34375 23.421875 L 169.734375 23.421875 Z M 237.109375 29.546875 L 241.078125 28.46875 L 237.109375 28.46875 Z M 224.859375 32.25 L 228.46875 31.53125 L 228.46875 28.65625 L 224.859375 28.65625 Z M 212.609375 32.078125 L 215.671875 32.078125 L 215.671875 29.015625 L 212.609375 29.015625 Z M 200.546875 31.71875 L 203.0625 31.71875 L 203.0625 29.1875 L 200.546875 29.1875 Z M 188.28125 31.53125 L 190.265625 31.53125 L 190.265625 29.546875 L 188.28125 29.546875 Z M 176.03125 31.34375 L 177.65625 31.34375 L 177.65625 29.734375 L 176.03125 29.734375 Z M 194.421875 36.390625 L 196.578125 36.21875 L 196.578125 35.5 L 194.421875 35.5 Z M 182.15625 36.9375 L 183.78125 36.9375 L 183.78125 35.859375 L 182.15625 35.859375 Z M 182.15625 36.9375 "/></g></g></g></svg>