<?xml version="1.0" standalone="no"?>
<!DOCTYPE svg PUBLIC "-//W3C//DTD SVG 20010904//EN"
 "http://www.w3.org/TR/2001/REC-SVG-20010904/DTD/svg10.dtd">
<svg version="1.0" xmlns="http://www.w3.org/2000/svg"
 width="334.000000pt" height="331.000000pt" viewBox="0 0 334.000000 331.000000"
 preserveAspectRatio="xMidYMid meet">

<g transform="translate(0.000000,331.000000) scale(0.100000,-0.100000)"
fill="#ff204e" stroke="none">
<path d="M1356 3289 c-662 -116 -1187 -633 -1326 -1305 -53 -252 -28 -599 61
-874 206 -635 784 -1079 1440 -1107 l136 -6 66 114 c49 82 67 123 67 149 l0
35 -123 1 c-217 2 -389 44 -592 145 -268 132 -487 353 -624 627 -23 46 -41 87
-39 91 2 4 127 -77 278 -180 340 -232 440 -295 605 -380 177 -92 523 -229 579
-229 12 0 94 156 85 164 -2 2 -71 30 -154 61 -82 32 -156 61 -164 65 -7 4 33
9 90 12 126 6 237 35 353 92 47 23 86 40 86 38 0 -20 -264 -491 -366 -653 -37
-59 -54 -97 -54 -119 l0 -33 83 6 c45 3 130 15 187 27 646 131 1135 625 1283
1295 19 88 22 129 21 335 0 259 -11 339 -75 532 -208 634 -786 1077 -1440
1105 l-136 6 -61 -106 c-47 -81 -62 -115 -62 -145 l0 -39 123 -6 c217 -11 376
-49 556 -133 193 -90 384 -247 516 -422 58 -78 175 -285 175 -310 0 -6 -116
68 -257 165 -439 300 -617 404 -874 509 -129 53 -305 114 -329 114 -14 0 -90
-134 -90 -159 0 -4 40 -22 88 -40 49 -17 119 -44 156 -60 l67 -28 -98 -5
c-120 -6 -234 -36 -346 -91 l-85 -42 45 89 c67 134 196 364 290 518 56 92 83
147 83 168 l0 30 -57 -1 c-32 0 -107 -9 -167 -20z m-242 -466 c-21 -38 -78
-142 -126 -233 l-88 -164 -228 -181 c-125 -99 -247 -195 -270 -213 l-42 -34
31 89 c114 321 348 590 661 758 46 25 87 45 91 45 5 0 -8 -30 -29 -67z m674
-559 c120 -24 214 -75 305 -166 110 -110 116 -109 254 22 l106 100 91 -64
c251 -175 415 -277 631 -395 l130 -71 -68 0 -68 0 -309 -240 c-171 -132 -312
-240 -315 -240 -3 0 4 18 15 39 11 22 31 79 45 126 23 79 25 105 25 265 l0
177 -345 7 -345 6 -38 42 c-87 97 -230 125 -347 69 -73 -35 -115 -78 -149
-151 -115 -247 152 -508 399 -392 33 16 66 36 74 45 11 15 37 17 177 17 115 0
164 -3 164 -11 0 -29 -70 -131 -134 -194 -84 -83 -182 -136 -298 -159 -97 -20
-139 -20 -236 0 -225 45 -410 224 -463 444 -17 71 -17 209 0 280 43 180 188
349 355 413 123 47 223 56 344 31z m-1008 -203 c-11 -22 -32 -79 -47 -128 -25
-83 -27 -99 -27 -278 0 -178 2 -195 27 -278 15 -48 45 -123 67 -167 22 -44 40
-82 40 -84 0 -3 -59 35 -130 85 -161 111 -348 226 -527 324 l-138 75 65 1 65
0 310 244 c171 134 311 244 313 244 1 1 -7 -17 -18 -38z m2175 -832 c-109
-318 -365 -612 -673 -769 -46 -23 -84 -41 -87 -39 -2 2 31 65 73 140 43 75 97
176 121 225 l44 89 271 212 c149 117 272 213 273 213 1 0 -9 -32 -22 -71z"/>
</g>
</svg>
